<svg width="52" height="46" viewBox="0 0 52 46" fill="none" xmlns="http://www.w3.org/2000/svg">
<path id="Vector" fill-rule="evenodd" clip-rule="evenodd" d="M2.80256 3.76536L5.60513 6.57073H11.6304H17.6554L20.4477 3.76536L23.24 0.959991H11.6198H0L2.80256 3.76536ZM24.4186 6.34007L19.045 11.7205L19.0591 24.6529L19.0731 37.5857L23.1309 41.7728L27.1884 45.96L31.225 41.9231L35.2619 37.8864L35.18 26.7413L35.098 15.5962L31.5133 18.6023C29.5418 20.2556 27.8586 21.6811 27.7729 21.7702C27.6248 21.9242 28.8592 21.6898 30.0327 21.341C30.5402 21.1901 30.5782 21.639 30.5782 27.7734V34.3676L28.89 36.1244L27.2021 37.8808L25.9416 36.4866L24.6813 35.092L24.6686 24.4889L24.6558 13.8862L28.323 10.2283L31.9903 6.57073H38.8497H45.7091L48.5014 3.76536L51.2937 0.959991H40.5429H29.7924L24.4186 6.34007Z" fill="white"/>
</svg>
